#tb 0: 1001/30000
#media_type 0: video
#codec_id 0: rawvideo
#dimensions 0: 1920x1080
#sar 0: 1/1
0,          0,          0,        1,  3110400, 0x40d65f69
0,          1,          1,        1,  3110400, 0xdcbc50bf
0,          2,          2,        1,  3110400, 0x73a2276a
0,          3,          3,        1,  3110400, 0x84a2b3c6
0,          4,          4,        1,  3110400, 0x7cf3b570
0,          5,          5,        1,  3110400, 0xa2d1e03a
0,          6,          6,        1,  3110400, 0x03220fb1
0,          7,          7,        1,  3110400, 0x89cd526a
0,          8,          8,        1,  3110400, 0xbb4b7531
0,          9,          9,        1,  3110400, 0x0a69f053
0,         10,         10,        1,  3110400, 0x0187994b
0,         11,         11,        1,  3110400, 0x26ed49fa
0,         12,         12,        1,  3110400, 0xbe8966d4
0,         13,         13,        1,  3110400, 0x248d203c
0,         14,         14,        1,  3110400, 0x3139c754
0,         15,         15,        1,  3110400, 0xf22380c4
0,         16,         16,        1,  3110400, 0x3e00dcc1
0,         17,         17,        1,  3110400, 0x8cbe2483
0,         18,         18,        1,  3110400, 0x6951cd63
0,         19,         19,        1,  3110400, 0x36aca4c5
0,         20,         20,        1,  3110400, 0x4d4f6fbe
0,         21,         21,        1,  3110400, 0x997247aa
0,         22,         22,        1,  3110400, 0x0fd40e06
0,         23,         23,        1,  3110400, 0xa10d2d67
0,         24,         24,        1,  3110400, 0x87c481da
0,         25,         25,        1,  3110400, 0xe3dca3cd
0,         26,         26,        1,  3110400, 0x5f77b078
0,         27,         27,        1,  3110400, 0xf1ddd098
0,         28,         28,        1,  3110400, 0xedcd1754
0,         29,         29,        1,  3110400, 0x14ac7153
